<?xml version="1.0" encoding="utf-8"?>
<!-- Generator: Adobe Illustrator 25.2.1, SVG Export Plug-In . SVG Version: 6.00 Build 0)  -->
<svg version="1.1" id="Layer_1" xmlns="http://www.w3.org/2000/svg" xmlns:xlink="http://www.w3.org/1999/xlink" x="0px" y="0px"
	 viewBox="0 0 350 400" style="enable-background:new 0 0 350 400;" xml:space="preserve">
<style type="text/css">
	.st0{fill:#0A3F76;}
	.st1{fill:#FFFFFF;}
</style>
<rect y="0" class="st0" width="350" height="400"/>
<path class="st1" d="M285.9,303.3c5.4-22.9,5.5-37.2,5-42.4c-0.2-2.1-3.9-18.4-11.7-29.6c-15.6-22.4-16.9-47.9-16.9-47.9
	s-4.7,6.8,1.5,31.3c6.5,25.6,5.8,37.2,5,49.5c-1,15.3-12.3,37.6-14.4,60.2c-1.9,21.7,6.8,36.6,6.8,36.6h37
	C298.2,360.7,281,323.9,285.9,303.3z"/>
<path class="st1" d="M306.2,68.3c-5.7,9.8-13.6,23.3-28.9,34.3c-8,5.7-18.2,12-31.5,18.4c1,8.7,1.3,17.9,0.2,26.6
	c19.3-10.8,41.4-28.7,59.9-59.7C319,65.8,319,34.8,319,34.8S310.7,60.4,306.2,68.3z"/>
<path class="st1" d="M211.4,128.7c-6.5-9.3-18-18.4-21.9-28.7c-4.2-11-7.3-42-7.8-46.3c-2.4-25.1-8-28.4-8-28.4s1.8,30.5-10.1,74.6
	c-3.4,12.6,2.3,33.9,7,45.9C187.1,137.6,198.6,132.6,211.4,128.7z"/>
<path class="st1" d="M207.7,160c-7,3.2-14.3,6.6-21.7,10.5c1.5,2,2.9,3.8,4.2,5.6C196.8,170.7,202.7,165.6,207.7,160z"/>
<path class="st1" d="M252.3,277.8c3.4-31.9-10.5-62.3-10.5-62.3s-5-14.3-9.2-28.6c-5.2,10.1-13.3,20.9-28.6,36.7
	c0.2,15.8-4.4,37-18,64.7c-20.1,40.9-6.5,72.4-6.5,72.4h74.8c0,0-2.3-2.9-5.4-13.4C245.8,336.8,248.9,309.7,252.3,277.8z"/>
<path class="st1" d="M195.4,229.8c2.4-2.4,4.7-4.8,6.8-7.1c15.1-15.8,23.2-26.8,28.6-36.7c4.4-8.3,6.8-16,9.9-25.1
	c1.5-4.4,2.4-8.7,2.9-13.1c1.1-8.7,0.8-17.9-0.2-26.6c-3.2-27.1-14-50.7-14.4-51.8c0.3,1.2,8.1,28.3,0.2,58.1
	c-0.6,2.3-1.3,4.7-2.1,6.9c-1.6,4.8-3.9,9.5-6.7,13.8c-3.2,5.3-7.3,10.2-11.8,14.7c-6.5,6.5-14.1,12.3-22.6,18.7
	c-17.8,13.4-37.5,22.3-58.9,49.4c-36.8,46.8-29.2,129.7-29.2,129.7h60.4c0,0-10.1-9.9-11.4-45C145.7,284.4,161.1,263.7,195.4,229.8z
	"/>
<path class="st1" d="M164.1,181.1c14.8-9,30.3-17,46.4-23.9c0,0,4.1-4.4,9.6-14.3c2.8-5.3,5-10.8,6.7-16.4c0,0-46.1,12.3-93.8,44.4
	c-33.3,22.4-57.3,43.9-67.2,79c-3.6,13.1-7.3,41.7-8.9,56.6c-2.8,23-21.7,54.3-21.7,54.3h44.6c0,0,9.2-22.7,10.5-45.3
	c1.6-27.5,5.2-57.9,16.7-76.7C131.1,199,145.2,192.3,164.1,181.1z"/>
</svg>
