<?xml version="1.0" encoding="utf-8"?>
<!-- Generator: Adobe Illustrator 25.2.1, SVG Export Plug-In . SVG Version: 6.00 Build 0)  -->
<svg version="1.1" id="Layer_1" xmlns="http://www.w3.org/2000/svg" xmlns:xlink="http://www.w3.org/1999/xlink" x="0px" y="0px"
	 viewBox="0 0 350 400" style="enable-background:new 0 0 350 400;" xml:space="preserve">
<style type="text/css">
	.st0{fill:#0A3F76;}
	.st1{clip-path:url(#SVGID_3_);}
	.st2{display:none;fill:#FFFFFF;}
	.st3{fill:#FFFFFF;}
</style>
<g>
	<g>
		<rect id="SVGID_1_" y="0" class="st0" width="350" height="400"/>
	</g>
	<g>
		<defs>
			<rect id="SVGID_2_" x="-39" y="-8.1" width="456" height="529"/>
		</defs>
		<clipPath id="SVGID_3_">
			<use xlink:href="#SVGID_2_"  style="overflow:visible;"/>
		</clipPath>
		<g class="st1">
			<rect y="0" class="st2" width="350" height="400"/>
			<path class="st3" d="M308,287.5c-4-1.6-8.1-3-12.1-4.5c-5.7-2.1-11.3-4.2-17.1-6.3c-0.5-0.1-1-0.7-1.4,0.3
				c-0.8,1.6-1.7,3.2-2.5,4.8c-0.7,1.5-1.4,2.8-2.2,4.2c-1.7,3-3.3,6-5,9c-0.8,1.5-1.6,2.8-2.3,4.2c-1,2-2.5,3.8-3.1,6.1
				c0.1,0,0.3,0,0.3,0c6.1-4.9,12.4-9.8,18.5-14.7c1.7-1.3,3-3.2,5.7-2.6c0.9,0.1,1.7,0.3,2.6,0.3c3.1-0.1,6.3,0.1,9.4,0.3
				c3.1,0.1,6.1,0.1,9.1,0.3c0.3,0,0.9,0.4,0.9-0.1C308.9,287.3,308.2,287.6,308,287.5z"/>
			<path class="st3" d="M278.1,272.8c-0.1,0.8,0.4,0.8,0.8,0.9c1.8,0.7,3.6,1.2,5.5,1.9c3.8,1.3,7.6,2.8,11.3,4c3,1.1,6.1,2.1,9.3,3
				l0.3-0.3c-8.3-8.2-16.7-16.3-25.1-24.6C279.3,263.1,278.8,268,278.1,272.8z"/>
			<path class="st3" d="M273.4,271.3c0.3-0.4,0.3-0.8,0.4-1.2c-0.1-6.6-0.3-13.4-0.3-20c0-0.4,0-0.7-0.3-1.1
				c-0.1-0.4-0.4-0.7-0.7-0.9c-8.9-9.1-17.8-18.1-26.7-27.2c-4-4.1-8.1-8.3-12.1-12.4c-5.6-5.7-11.1-11.2-16.7-16.9
				c-0.5,0.1-0.3,0.4,0,0.7c2,3.7,4.3,7.3,6.5,10.8c2.2,3.8,4.6,7.5,6.9,11.4c1.8,3,3.8,6.1,5.5,9.1c2,3.3,4,6.3,6,9.7
				c2.6,4.2,5.1,8.5,7.7,12.6c1,1.7,2.5,3.3,3,5c0.9,3.2,1.3,6.3,1.8,9.5c0.9,5.4,1.8,11,2.9,16.4c1.2,6.6,2.5,13.1,3.6,19.7
				c0.5,0,0.5-0.4,0.7-0.8C265.6,287.6,269.5,279.5,273.4,271.3z"/>
			<path class="st3" d="M248,254.9c-1-2.9-1.4-6-3.1-8.7c-3.6-6.2-7.8-12.3-11.7-18.5c-8.3-13-16.4-25.9-24.8-38.9
				c-0.8-1.2-1.3-2.5-2.7-3.4c-5.7-3.6-11.5-7.4-17.2-11c-1.3-0.8-2.6-2-4.2-2.4c1.4,2.5,2.7,4.9,4.2,7.4c1,1.9,2.2,3.7,3.3,5.7
				c1.2,2.2,2.6,4.2,3.8,6.5c1.7,3.2,3.5,6.3,5.3,9.4c1.6,2.6,3.1,5.3,4.7,7.9c1.8,3.2,3.6,6.3,5.5,9.5c2,3.6,4.2,7,6.1,10.6
				c0.5,0.9,0.3,0.9-0.4,1.1c-1.7,0.4-3.4,0.9-5.5,1.5c3.8,1.2,6.9,2.4,10.3,3c2.7,0.7,4.7,1.9,6.3,4.1c0.9,1.3,2.1,2.6,3.1,4
				c4.3,5.4,8.5,10.8,12.8,16.3c2.9,3.7,5.9,7.4,8.7,11l0.4-0.1c-0.5-1.6-1-3.3-1.6-4.9C250.1,261.5,249.1,258.2,248,254.9z"/>
			<path class="st3" d="M221.4,115.7c-0.3,2.2-0.4,4.5-0.5,6.7c-0.3,8.2-0.9,16.4-1.4,24.6c-0.4,7-0.8,13.9-1.3,20.8
				c-0.4,5.3-0.5,10.6-1,15.9c0,0.5,0.3,0.8,0.7,1.1c2.5,1.5,5,2.8,7.6,4.2c0.8,0.4,1.6,0.8,2.3,1.2c2,1.5,4.2,2.4,6.5,3.6
				c0.1-12.2,0.3-24.2,0.4-36.4c0.1-12,0.1-23.9,0.1-36c0-0.7,0.3-1.2,0.8-1.6c1.6-1.5,3-2.9,4.7-4.6c-6.3-0.1-12.2-0.3-18.1-0.4
				C221.3,114.9,221.4,115.4,221.4,115.7z"/>
			<path class="st3" d="M204.9,105.8c-0.7,0.4-1.2,0.8-1.3,1.6c-1.2,6.1-2.3,12.2-3.6,18.3c-1.4,7.3-2.9,14.5-4.3,21.7
				c-1.6,7.7-3.1,15.5-4.7,23.1c-0.1,0.7,0.3,0.7,0.5,0.8c1.7,0.9,3.4,1.7,5.1,2.5c4.2,2.2,8.5,4,12.5,6.2c1.2,0.7,1.6,0.5,1.7-0.8
				c0.1-3.8,0.4-7.8,0.7-11.6l3.4-56.2c0-0.7,0.1-1.2,0.5-1.6c2.7-2.8,5.3-5.6,8.1-8.2c3.8-4,7.7-7.8,11.7-11.9
				c-0.8,0-1.4,0.3-2,0.7C223.8,95.6,214.3,100.7,204.9,105.8z"/>
			<path class="st3" d="M300.3,49L190.6,88.2l-1.2,1.1c-0.4,0.4-0.7,0.9-0.7,1.5c-1.3,6-2.7,11.8-4.2,17.6
				c-4.2,17.5-8.5,35-12.6,52.5c-0.1,0.5,0,0.7,0.5,0.9c1.7,0.9,3.5,1.7,5.2,2.6c2.7,1.5,5.5,2.5,8.1,4.1c0.3,0.1,0.7,0.1,1,0.3
				c0.8,0.5,0.9,0.1,1-0.5c0.5-3.6,1-7,1.6-10.4c1.7-11,3.4-22,5.1-32.9c1-7,2.1-14,3.1-21c0-0.4,0.1-0.7,0.4-1.1
				c0.3-0.3,0.5-0.5,0.9-0.7c3.9-1.7,7.8-3.6,11.7-5.3c6.1-2.8,12.2-5.6,18.2-8.3c4.4-2,8.9-4.1,13.3-6.1c4.7-2.1,9.5-4.4,14.2-6.5
				c5-2.2,10-4.5,15-6.9c6.1-2.8,12.2-5.6,18.4-8.3c2.1-0.9,3.9-1.9,5.1-3.8c1.4-2.2,3.3-4.4,5-6.5l1.4-1.6L300.3,49z"/>
			<path class="st3" d="M279.4,67.8c-8.6,4.1-17.3,8.1-25.9,12.2c-3.1,1.5-6.6,2.4-8.6,5.3c-0.4,0.5-0.8,1.1-1.3,1.5
				c-5.3,5-10.2,10.4-15.4,15.6c-2.1,2.1-4.3,4.4-6.4,6.6c0.3,0.1,0.4,0.3,0.5,0.3c4,0.4,8.1,0.7,12,1.1c2.6,0.3,5.2,0.4,7.8,0.7
				c1.6,0.1,3.5,0.8,4.7-0.8c1.8-2.2,3.8-4.5,5.7-6.6l22.9-26.2c3.6-4.2,7.4-8.5,11.1-12.7l-0.1-0.3
				C284.2,65.7,281.9,66.7,279.4,67.8z"/>
			<path class="st3" d="M207.1,222.9c-4.7-7.4-9.5-14.9-14.2-22.4c-0.4-0.7-0.7-0.5-1.2-0.4c-1.7,0.8-3.3,1.7-5,2.5
				c-13.5,7-27.2,14-40.8,20.9c-7,3.6-13.9,7.1-21,10.7c-0.5,0.3-1.2,0.4-1.2,1.2c0,1.1-0.3,2-0.3,3c-0.3,8.9-1.2,17.6-1.7,26.6
				c1.3-0.3,2.3-1.1,3.4-1.7c8.2-4.6,16.4-9.3,24.6-13.9c11.2-6.2,22.4-12.6,33.7-18.8c3.3-1.9,6.1-4.1,10.7-3.7
				c5,0.4,9.9,0.3,14.9,0.4c0.7,0,0.7-0.3,0.4-0.8C208.9,225.6,208,224.3,207.1,222.9z"/>
			<path class="st3" d="M115.3,240.5l-3.6,1.7c-6.9,3.2-13.8,6.5-20.8,9.7c-0.7,0.3-0.8,0.5-0.8,1.3c0.3,4,0.4,7.9,0.5,11.9
				c0.4,7,0.8,14,1.2,21c0.3,5.2,0.5,10.2,0.8,15.3c0.3,5,0.5,10.1,0.8,15.1c0,0.4,0,0.5,0.4,0.7c0.5,0.1,0.4-0.3,0.5-0.5
				c0.9-1.9,1.8-3.6,2.7-5.4c4-8.2,8.2-16.3,12.2-24.5c1-2.1,2-4.4,3.1-6.3c0.8-1.3,1.3-2.8,1.3-4.5c0.4-7.1,0.9-14.4,1.3-21.6
				c0.3-4.4,0.5-8.7,0.8-13.1C115.6,241,116,240.4,115.3,240.5z"/>
			<path class="st3" d="M130.1,224.9c5.6-2.8,11.2-5.4,16.8-8.2c9-4.4,17.8-8.9,26.8-13.4c5.3-2.6,10.7-5.3,16-7.9
				c0.4-0.3,1-0.4,0.8-0.8c-0.7-1.2-1.2-2.1-1.7-3c-2.6-4.4-5.3-8.9-7.9-13.2c-1.7-2.8-3.3-5.6-5-8.2c-0.4-0.7-0.8-0.9-1.6-0.5
				c-1.2,0.7-2.5,1.3-3.8,1.9c-12.8,6.2-25.5,12.6-38.3,18.8c-2.5,1.2-5.1,2.1-7.2,3.7c-2.1,1.7-4,3.4-6,5.2
				c-7.4,6.6-14.9,13.1-22.4,19.7c-3.3,2.9-6.6,6-9.9,8.9c-6.1,5.3-12.1,10.6-18.2,16c-0.3,0.3-0.7,0.5-0.5,1.2
				c0.3,2.8,0.4,5.7,0.7,8.5c0.5,4.8,1,9.5,1.4,14.4c0.4,4.6,0.8,9.1,1.2,13.8c0.5,5.8,1.2,11.6,1.7,17.5c0.5,5.3,1,10.6,1.6,15.9
				c0.5,5.8,1,11.6,1.6,17.5c0.5,5.2,1,10.4,1.6,15.6c0,0.3-0.1,0.8,0.3,0.9c0.5,0.3,0.5-0.4,0.7-0.7c3.1-6.5,6.3-13,9.4-19.4
				c0.3-0.5,0.4-1.1,0.4-1.6c-0.8-18.1-1.6-36.1-2.3-54.2c-0.4-7.8-0.7-15.6-1.2-23.4c-0.1-1.9,0.5-2.6,2.1-3.4
				c7.7-3.7,15.4-7.5,23.1-11.4C116.6,231.7,123.3,228.2,130.1,224.9z"/>
			<path class="st3" d="M121,186.2c0.8,0.9,1.6,1.9,2.2,2.8c0.8,1.2,1.4,1.2,2.5,0.7c8.3-4.4,16.8-8.6,25.3-13
				c5.3-2.8,10.6-5.4,16.2-8.2c-7.3-3.7-14.5-7.4-21.5-11c-3.3-1.7-3.1-1.7-3.5,1.7c-0.5,5-1,9.9-1.4,14.9c0,0.4-0.1,0.7-0.3,1.1
				c-0.3,0.3-0.5,0.5-0.8,0.7c-6.1,2.9-12.1,6-18.2,8.9C120.3,185,120.1,185.2,121,186.2z"/>
			<path class="st3" d="M115.8,159.5c2.1,0,4,0.4,6.1,0.5c1.2,0.1,1.8,0.5,2.2,1.9c0.5,1.9,1.4,3.7,2.2,5.6c0.4,0.8,0.4,1.3-0.5,1.6
				c-1.4,0.5-2.7,1.1-4,1.7c-0.3,0.1-0.5,0.3-0.8,0.3l-2.9-5.6c-0.1-0.3-0.3-0.5-0.4-0.8c-0.4-0.4-0.9-0.7-1.7-0.7
				c-3.4-0.3-6.9-0.7-10.3-0.9c-1.2-0.1-2.5-0.5-3.6-0.1c0.3,0.3,0.4,0.4,0.5,0.7c4.3,5.2,8.2,10.6,12.6,15.6c0.7,0.8,1,1.1,2,0.7
				s2-0.8,2.9-1.2c5.1-2,10-4,15.1-5.8c0.5-0.1,1-0.3,1-1.1c0-5.4,0.1-10.8,0.3-16.1c0-0.5-0.1-0.9-0.7-1.1c-2.7-0.7-5.5-1.6-8.2-2
				c-5.5-0.8-10.8-1.2-16.3-1.7c-1.2-0.1-2.3-0.5-3.5-0.1c1.7,2.1,3.3,4.2,4.8,6.3C113.6,158.1,114.1,159.5,115.8,159.5z"/>
			<path class="st3" d="M94.2,154.3c1.6,0.9,3.3,1.6,4.6,2.8c0.4,0.4,1,0.8,1.6,0.8c2.6,0,5.1,0,7.7,0c0.9,0,1.2-0.1,0.5-1.1
				c-1.6-2-3.1-4.1-4.6-6.1c-0.1-0.3-0.4-0.5-0.7-0.7s-0.5-0.3-0.9-0.4c-5.1-0.8-10.2-1.7-15.4-2.5c-1.7-0.3-3.5-0.8-5.3-0.7
				c0.1,0.3,0.1,0.4,0.3,0.4C85.9,149.5,90.1,151.8,94.2,154.3z"/>
		</g>
	</g>
</g>
</svg>
