<svg width="28" height="28" viewBox="0 0 28 28" fill="none" xmlns="http://www.w3.org/2000/svg">
<path d="M13.986 0C6.258 0 0 6.272 0 14C0 21.728 6.258 28 13.986 28C21.728 28 28 21.728 28 14C28 6.272 21.728 0 13.986 0ZM14 25.2C7.812 25.2 2.8 20.188 2.8 14C2.8 7.812 7.812 2.8 14 2.8C20.188 2.8 25.2 7.812 25.2 14C25.2 20.188 20.188 25.2 14 25.2ZM13.692 7H13.608C13.048 7 12.6 7.448 12.6 8.008V14.616C12.6 15.106 12.852 15.568 13.286 15.82L19.096 19.306C19.572 19.586 20.188 19.446 20.468 18.97C20.762 18.494 20.608 17.864 20.118 17.584L14.7 14.364V8.008C14.7 7.448 14.252 7 13.692 7Z" fill="#121212"/>
</svg>
