<svg width="26" height="28" viewBox="0 0 26 28" fill="none" xmlns="http://www.w3.org/2000/svg">
<path fill-rule="evenodd" clip-rule="evenodd" d="M8 26L18 26C21.3137 26 24 23.3137 24 20V10L2 10L2 20C2 23.3137 4.68629 26 8 26ZM18 28C22.4183 28 26 24.4183 26 20V10C26 8.89543 25.1046 8 24 8L2 8C0.895431 8 9.70792e-07 8.89543 8.74228e-07 10L0 20C-3.86258e-07 24.4183 3.58172 28 8 28L18 28Z" fill="#121212"/>
<path fill-rule="evenodd" clip-rule="evenodd" d="M13 2C9.68629 2 7 4.68629 7 8V13H5V8C5 3.58172 8.58172 0 13 0C17.4183 0 21 3.58172 21 8V13H19V8C19 4.68629 16.3137 2 13 2Z" fill="#121212"/>
<path fill-rule="evenodd" clip-rule="evenodd" d="M6 14C6.55229 14 7 13.5523 7 13C7 12.4477 6.55229 12 6 12C5.44772 12 5 12.4477 5 13C5 13.5523 5.44772 14 6 14Z" fill="#121212"/>
<path fill-rule="evenodd" clip-rule="evenodd" d="M20 14C20.5523 14 21 13.5523 21 13C21 12.4477 20.5523 12 20 12C19.4477 12 19 12.4477 19 13C19 13.5523 19.4477 14 20 14Z" fill="#121212"/>
</svg>
