<svg width="28" height="28" viewBox="0 0 28 28" fill="none" xmlns="http://www.w3.org/2000/svg">
<path d="M18.6667 14H21.7778C21.7778 9.70667 18.2933 6.22222 14 6.22222V9.33333C16.5822 9.33333 18.6667 11.4178 18.6667 14ZM24.8889 14H28C28 6.26889 21.7311 0 14 0V3.11111C20.02 3.11111 24.8889 7.98 24.8889 14ZM26.4444 19.4444C24.5 19.4444 22.6333 19.1333 20.8911 18.5578C20.7356 18.5111 20.5644 18.48 20.4089 18.48C20.0044 18.48 19.6156 18.6356 19.3044 18.9311L15.8822 22.3533C11.48 20.1133 7.87111 16.52 5.63111 12.1022L9.05333 8.66444C9.48889 8.26 9.61333 7.65333 9.44222 7.10889C8.86667 5.36667 8.55556 3.5 8.55556 1.55556C8.55556 0.7 7.85556 0 7 0H1.55556C0.7 0 0 0.7 0 1.55556C0 16.1622 11.8378 28 26.4444 28C27.3 28 28 27.3 28 26.4444V21C28 20.1444 27.3 19.4444 26.4444 19.4444ZM3.15778 3.11111H5.49111C5.6 4.48 5.83333 5.83333 6.19111 7.12444L4.32444 9.00667C3.70222 7.12444 3.29778 5.16444 3.15778 3.11111ZM24.8889 24.8422C22.8356 24.7022 20.8444 24.2978 18.9778 23.66L20.8444 21.7933C22.1667 22.1667 23.52 22.4 24.8889 22.4933V24.8422Z" fill="#121212"/>
</svg>
