<svg width="41" height="41" viewBox="0 0 41 41" fill="none" xmlns="http://www.w3.org/2000/svg">
<rect width="41" height="41" rx="20.5" fill="#34AADF"/>
<path d="M11.4064 19.7736C11.4064 19.7736 19.7477 16.2604 22.6406 15.0233C23.7496 14.5285 27.5104 12.945 27.5104 12.945C27.5104 12.945 29.2462 12.2523 29.1016 13.9346C29.0533 14.6274 28.6676 17.052 28.2819 19.6746C27.7033 23.3858 27.0765 27.4434 27.0765 27.4434C27.0765 27.4434 26.9801 28.5815 26.1604 28.7794C25.3407 28.9773 23.9907 28.0867 23.7496 27.8887C23.5567 27.7403 20.1334 25.5136 18.8798 24.4249C18.5423 24.1281 18.1566 23.5343 18.928 22.8415C20.6638 21.2086 22.7371 19.1798 23.9907 17.8933C24.5693 17.2995 25.1478 15.914 22.7371 17.5963C19.3138 20.021 15.9387 22.2972 15.9387 22.2972C15.9387 22.2972 15.1672 22.792 13.7207 22.3467C12.2742 21.9014 10.5867 21.3076 10.5867 21.3076C10.5867 21.3076 9.42957 20.5653 11.4064 19.7736Z" fill="white"/>
</svg>
