<svg width="350" height="400" viewBox="0 0 350 400" fill="none" xmlns="http://www.w3.org/2000/svg">
<g clip-path="url(#clip0_185_27)">
<rect width="350" height="400" fill="#0A3F76"/>
<path d="M94.034 156.986C96.0655 155.898 98.1259 154.84 100.215 153.862C100.578 153.691 101.376 153.794 101.591 154.074C104.096 157.431 107.743 158.495 111.525 159.225C116.191 160.133 122.048 155.235 123.464 151.392C124.346 149.054 125.108 146.672 125.748 144.254C126.064 143.013 126.534 142.439 127.82 142.3C129.735 142.097 131.628 141.672 133.848 141.283C130.191 139.471 126.915 137.747 123.551 136.232C122.294 135.663 120.814 135.248 119.468 135.321C112.503 135.693 106.083 137.582 101.124 142.948C99.5203 144.63 98.0107 146.401 96.6023 148.253C94.6289 150.938 92.8296 153.759 90.981 156.505C92.4524 157.79 92.5655 157.77 94.034 156.986Z" fill="#F0F0F0"/>
<path d="M110.866 117.848C108.942 118.717 106.716 119.242 105.172 120.577C102.462 122.917 100.096 125.693 97.7342 128.419C96.6942 129.603 95.8715 130.966 95.3051 132.445C93.9643 136.07 92.789 139.765 91.6804 143.473C91.2683 144.855 91.2277 146.349 91.0158 147.796L91.5962 147.947C93.1953 146.066 94.6493 144.03 96.4224 142.347C99.9049 139.038 103.567 135.949 107.093 132.701C107.683 132.135 108.08 131.393 108.228 130.582C108.826 126.751 109.865 123.141 112.155 119.972C112.776 119.115 113.205 118.116 113.725 117.184L113.434 116.775C112.575 117.126 111.711 117.47 110.866 117.848Z" fill="#F0F0F0"/>
<path d="M25.5739 206.851C23.8327 203.789 21.6532 200.987 19.4302 197.765C18.6235 200.916 17.7615 203.624 17.2595 206.398C16.5949 210.058 17.2101 213.53 19.0675 216.854C20.5185 219.424 21.5459 222.221 24.3725 223.618C24.9955 223.889 25.633 224.124 26.2821 224.322C26.4765 223.635 26.8625 222.94 26.8276 222.259C26.6535 218.619 26.3894 214.983 26.1225 211.355C26.0122 209.84 26.2588 208.063 25.5739 206.851Z" fill="#F0F0F0"/>
<path d="M102.592 236.971C100.131 236.04 97.7138 235.085 94.9974 234.908C90.8765 234.646 86.6656 235.421 82.6288 236.329C75.1995 238.006 65.7126 239.223 60.129 239.462C56.6393 239.571 53.1471 239.356 49.696 238.819C46.1061 238.297 42.2493 237.319 39.1005 235.456C36.8514 234.124 35.2813 232.533 33.276 231.307C31.6255 230.281 29.8308 229.517 27.9536 229.04C27.9536 231.313 27.9739 233.24 27.9536 235.168C27.9217 237.684 27.7998 240.24 27.9042 242.703C28.0697 246.549 29.3814 249.585 30.9572 252.591C32.6027 255.727 34.7764 258.933 37.5189 261.032C41.4089 264.054 46.1457 265.74 51.0425 265.844C55.3637 265.983 57.8537 265.352 60.6948 264.391C64.4675 263.115 67.0388 260.761 70.1092 258.975C75.0254 256.116 79.1608 253.543 84.2017 250.932C88.5316 248.689 93.3636 247.914 98.0766 249.237C103.573 250.781 108.765 252.915 112.752 257.628C116.638 262.219 119.503 267.259 120.753 273.032C122.315 280.253 123.267 287.609 124.433 294.915C124.753 296.931 124.903 298.973 125.147 301.142C125.366 300.827 125.539 300.482 125.661 300.117C126.029 298.452 126.476 296.786 126.636 295.107C127.216 288.859 127.591 282.59 128.261 276.351C128.897 270.407 128.165 264.562 125.649 259.331C120.751 249.072 112.773 240.82 102.592 236.971Z" fill="#F0F0F0"/>
<path d="M19.1806 184.957C19.6682 188.838 21.3543 192.154 23.7137 195.095C26.906 199.068 29.6427 202.949 29.8777 208.543C30.078 213.373 31.6799 218.151 32.7247 222.937C32.8727 223.621 33.3051 224.269 33.7317 224.855C37.9136 230.782 44.1386 233.084 50.7901 234.16C59.9839 235.648 68.9717 234.313 77.5067 230.561C85.4352 227.04 93.7198 224.412 102.212 222.725C104.856 222.206 107.459 221.463 110.08 220.827C110.08 220.682 106.498 219.792 102.853 219.613C101.983 219.571 96.0423 219.415 91.9126 220.14C85.5599 221.251 79.2856 222.822 72.9794 224.201C66.2089 225.675 59.4499 226.977 52.4356 226.129C48.9064 225.728 45.5554 224.343 42.7543 222.126C42.2522 221.734 41.9272 221.077 41.5935 220.497C38.9061 215.713 37.9745 211.416 38.7233 206.094C39.0367 203.863 41.5267 199.905 42.8036 198.449C45.311 195.581 47.2496 194.161 50.5376 191.405C53.4774 188.945 56.632 186.395 59.4296 183.793C62.738 180.731 65.8664 177.825 69.0413 174.4C67.065 175.311 65.1409 176.216 63.2052 177.085C60.2683 178.406 57.3198 179.148 54.055 178.155C47.8184 176.248 41.5122 174.571 35.264 172.703C30.6207 171.315 26.0179 169.809 21.0757 170.05C19.1806 170.145 17.9531 171.088 17.7761 172.977C17.6161 174.272 17.6082 175.582 17.7528 176.879C18.1446 179.59 18.8382 182.249 19.1806 184.957Z" fill="#F0F0F0"/>
<path d="M112.773 93.9404C113.231 94.4296 114.267 94.5681 115.019 94.5298C116.415 94.4591 117.799 93.9404 119.183 93.958C126.047 94.0111 132.907 94.182 139.768 94.2999C141.08 94.3235 142.38 94.2999 144.165 94.2999C139.579 87.9223 133.546 84.3061 127.002 82.1547C118.903 79.4592 110.195 79.2888 102 81.6655C102.105 82.0162 102.105 82.1518 102.171 82.2255C105.689 86.1511 109.177 90.0973 112.773 93.9404Z" fill="#F0F0F0"/>
<path d="M22.3555 165.98C25.809 165.096 29.1406 165.612 32.4374 166.803C33.7578 167.28 35.1566 167.522 36.5003 167.964C40.7431 169.37 45.3516 169.823 48.9618 172.888C49.1098 173.012 49.4493 172.903 49.8324 172.903C49.6902 172.494 49.5828 172.24 49.5132 171.975C48.6425 168.751 47.5282 165.568 46.9855 162.288C46.4428 159.007 47.5833 155.925 50.0791 153.632C53.5355 150.455 57.0789 147.378 60.6252 144.304C65.5791 140.01 70.5881 135.781 75.5304 131.472C76.6767 130.473 77.9101 130.122 79.3785 130.084C82.4692 130.008 85.5599 129.831 88.6448 129.633C89.1894 129.607 89.7105 129.4 90.1278 129.044C91.9155 127.24 93.5319 125.251 95.3922 123.533C98.0041 121.119 100.485 118.228 103.573 116.731C108.245 114.45 113.336 112.964 118.356 111.538C124.517 109.787 130.78 109.657 137.025 111.426C137.722 111.623 138.712 111.393 139.347 111.01C143.288 108.694 147.162 106.262 151.072 103.893C154.095 102.06 157.137 100.256 160.172 98.4377L160.033 97.754C156.403 97.754 152.763 97.5889 149.145 97.7864C142.238 98.1666 135.345 98.7766 128.444 99.26C119.996 99.8347 111.684 101.235 103.637 103.899C94.1152 107.049 85.5484 112.219 77.0017 117.385C76.6299 117.632 76.3366 117.983 76.1572 118.396C75.1676 120.621 74.416 122.97 73.229 125.086C71.7519 127.738 70.3269 130.585 68.2171 132.675C62.1228 138.734 54.8008 143.158 47.4585 147.472C45.3139 148.731 42.7485 149.294 40.7083 150.676C36.3726 153.623 32.2226 156.841 28.0552 160.027C25.7335 161.795 23.5424 163.729 21.2933 165.585C21.3804 165.727 21.4675 165.865 21.5517 166.007C21.8197 166.03 22.0895 166.021 22.3555 165.98Z" fill="#F0F0F0"/>
<path d="M116.94 129.931C120.542 129.392 123.992 129.975 127.469 130.679C130.165 131.225 132.881 132.23 135.563 132.153C140.27 132.014 144.957 131.216 149.649 130.679C151.333 130.485 153.007 130.217 154.899 129.951C154.542 129.468 154.42 129.197 154.214 129.035C150.584 126.173 147.113 123.061 143.253 120.559C139.829 118.34 135.975 117.42 131.668 117.865C126.482 118.402 122.55 121.219 118.496 123.948C116.702 125.154 115.129 126.695 113.04 128.431C114.679 129.088 115.892 130.087 116.94 129.931Z" fill="#F0F0F0"/>
<path d="M161.562 140.653C160.901 140.555 160.242 140.44 159.58 140.358C159.245 140.32 158.906 140.32 158.57 140.358C151.527 141.257 144.536 142.468 138.134 145.733C135.857 146.899 133.795 148.455 132.04 150.334C130.629 151.864 130.072 154.165 128.868 155.934C127.663 157.702 126.459 159.765 124.729 160.649C121.61 162.255 118.104 163.095 114.755 164.239C113.492 164.669 112.213 165.049 110.942 165.45C111.349 165.733 111.825 165.896 112.317 165.921C115.814 166.411 119.381 166.608 122.785 167.475C127.509 168.68 132.022 168.474 136.442 166.558C137.337 166.174 138.149 165.614 138.831 164.91C139.513 164.207 140.051 163.374 140.415 162.458C142.496 157.61 144.403 152.589 148.367 148.902C150.037 147.325 151.873 145.942 153.843 144.776C156.347 143.32 159.052 142.215 161.679 140.944C161.635 140.868 161.603 140.759 161.562 140.653Z" fill="#F0F0F0"/>
<path d="M106.768 177.283C107.532 178.075 107.903 179.251 108.481 180.23C108.814 180.799 109.061 181.535 109.575 181.86C112.932 184.02 116.319 186.142 119.764 188.158C120.789 188.751 121.921 189.129 123.093 189.269C127.89 189.805 132.725 190.038 137.496 190.742C139.579 191.037 141.675 191.974 143.529 193.041C147.206 195.166 149.127 198.756 150.555 202.669C151.135 204.258 151.928 205.77 152.549 207.344C153.109 208.764 153.57 210.226 154.165 211.929C159.908 203.203 159.331 179.042 153.498 172.199C153.387 172.199 153.257 172.178 153.176 172.231C152.842 172.441 152.528 172.679 152.2 172.9C148.05 175.721 143.964 178.574 139.005 179.932C133.827 181.35 128.769 181.68 123.865 179.257C115.739 175.246 107.192 172.455 98.6164 169.753C98.0753 169.629 97.5248 169.551 96.9709 169.52L96.8229 169.977C100.935 171.315 103.881 174.285 106.768 177.283Z" fill="#F0F0F0"/>
<path d="M175.136 173.587C177.547 167.66 178.209 161.468 177.562 155.117C177.505 154.552 177.374 153.997 177.173 153.467C175.356 148.798 173.513 144.145 171.682 139.485C170.678 136.927 168.649 135.359 166.217 133.591C172.297 148.501 166.67 160.257 158.338 171.609C157.793 171.1 163.945 186.934 165.106 195.823C165.933 194.936 172.477 180.121 175.136 173.587Z" fill="#F0F0F0"/>
<path d="M196.62 121.8C198.761 116.551 199.522 111.031 199.2 105.378C198.996 101.789 197.415 99.0566 193.976 97.7156C193.59 97.5653 193.079 97.692 192.638 97.7628C192.037 97.86 191.451 98.0575 190.847 98.1577C190.244 98.2579 189.492 98.087 189.063 98.4023C186.256 100.451 183.122 102.234 180.841 104.783C174.958 111.37 171.136 119.418 166.574 126.937C166.45 127.143 166.487 127.449 166.435 127.794C174.871 128.864 182.687 131.543 190.444 136.158C192.594 131.163 194.69 126.515 196.62 121.8Z" fill="#F0F0F0"/>
<path d="M145.259 114.9L158.007 124.655C161.629 119.858 165.234 114.98 168.948 110.191C174.099 103.545 179.454 97.1174 186.834 92.8027C188.601 91.7106 190.598 91.0592 192.661 90.9018C199.458 90.4509 205.555 96.2627 205.187 102.985C204.716 111.505 203.564 119.872 200.14 127.803C198.593 131.384 197.464 135.15 196.173 138.755L211.693 145.224C211.535 144.66 211.42 144.084 211.348 143.502C211.026 136.429 210.553 129.377 210.477 122.31C210.405 115.776 210.962 109.23 210.831 102.699C210.762 99.9683 210.103 97.2861 208.901 94.8422C206.272 89.6139 201.498 87.0558 196.022 85.818C194.475 85.4673 192.789 85.1696 191.262 85.429C189.124 85.7885 187.028 86.5784 184.994 87.3947C181.723 88.7062 178.145 89.667 175.353 91.7035C167.645 97.3296 160.294 103.457 152.772 109.345C150.291 111.281 147.72 113.094 145.259 114.9Z" fill="#F0F0F0"/>
<path d="M166.064 243.57C171.502 242.854 176.909 242.288 181.587 239.058C182.255 238.596 182.771 237.94 183.064 237.174C184.083 234.157 184.875 231.056 185.905 228.038C188.842 219.447 189.806 210.606 189.306 201.579C189.234 200.267 188.801 198.977 188.514 197.577C184.315 199.422 182.013 202.746 180.063 206.271C178.223 209.598 176.772 213.146 175.13 216.586C172.593 221.92 169.868 227.086 164.447 230.09C162.125 231.374 159.856 231.932 157.192 231.151C151.724 229.55 147.859 226.078 145.177 221.13C142.728 216.573 139.753 212.329 136.314 208.487C133.291 205.092 129.535 202.452 125.342 200.774C119.935 198.588 114.215 197.046 109.815 192.817C112.889 196.286 116.014 199.713 119.021 203.241C121.813 206.518 124.706 209.784 125.638 214.21C125.983 215.849 125.812 217.629 126.314 219.203C127.309 222.324 128.525 225.392 129.796 228.398C131.854 233.281 136.137 236.043 140.206 238.825C142.679 240.519 145.572 241.94 148.471 242.562C154.241 243.806 160.111 244.354 166.064 243.57Z" fill="#F0F0F0"/>
<path d="M189.097 234.372C189.28 234.522 204.545 216.418 204.684 216.238C209.299 210.243 212.381 203.424 215.358 196.492C217.465 191.591 217.924 186.513 217.573 181.42C216.992 173.133 214.261 165.391 210.573 157.999C210.448 157.68 210.257 157.391 210.013 157.154C205.831 153.912 201.724 150.54 197.4 147.496C195.145 145.91 192.499 144.896 190.029 143.623L189.864 143.824C190.012 144.089 190.185 144.34 190.38 144.572C197.273 151.383 202.795 159.034 204.522 168.916C205.306 173.395 205.015 177.91 202.911 181.948C200.836 185.93 198.137 189.578 194.536 192.345C193.375 193.23 193.213 194.143 193.422 195.522C195.221 207.382 194.916 219.067 190.409 230.375C189.893 231.675 189.53 233.04 189.097 234.372Z" fill="#F0F0F0"/>
<path d="M222.291 146.968C222.373 147.62 223.136 148.324 223.743 148.719C224.349 149.114 225.13 149.129 225.849 149.238C229.857 149.842 233.784 150.62 237.429 152.612C240.74 154.425 244.228 155.892 247.6 157.59C256.246 161.949 264.868 166.355 273.507 170.728C273.851 170.861 274.207 170.96 274.569 171.023L274.941 170.566C272.788 167.675 270.759 164.672 268.452 161.907C262.172 154.38 256.028 146.706 249.356 139.544C241.348 130.952 232.246 123.483 222.291 117.335C220.518 116.238 218.519 115.502 216.325 114.45C216.325 116.539 215.971 118.254 216.383 119.754C218.867 128.714 221.131 137.711 222.291 146.968Z" fill="#F0F0F0"/>
<path d="M189.634 249.741C183.673 252.29 173.005 255.158 167.1 255.114C163.281 254.84 158.945 253.451 154.873 252.582C153.646 252.323 152.427 252.01 151.202 251.724C152.334 253.934 153.672 256.029 155.198 257.978C158.266 261.986 161.96 265.414 166.31 267.801C170.582 270.159 175.185 271.927 179.75 273.66C183.374 275.039 187.136 276.086 190.882 277.099C195.848 278.446 200.839 278.676 205.781 276.849C206.995 276.404 211.087 274.904 211.005 273.669C210.756 269.281 210.378 264.881 210.474 260.492C210.576 255.83 211.072 251.167 211.565 246.523C212.015 242.32 214.871 225.071 215.469 221.071C212.23 226.512 209.487 231.772 206.124 236.588C202.615 241.628 195.293 247.321 189.634 249.741Z" fill="#F0F0F0"/>
<path d="M244.6 165.417C247.421 173.233 251.132 180.153 256.339 186.186C257.558 187.601 258.504 189.28 259.821 190.592C263.774 194.553 267.718 198.549 272.544 201.47C275.53 203.285 278.246 205.702 281.418 207.031C290.087 210.665 298.93 213.874 307.711 217.234C312.331 219.002 316.998 220.685 321.586 222.507C322.924 223.037 324.349 223.685 325.359 224.681C327.945 227.257 330.318 230.054 333 233.004C332.75 232.359 332.599 231.902 332.42 231.463C330.928 228.15 329.143 224.938 327.985 221.51C324.607 211.522 317.462 204.561 309.685 198.337C302.102 192.266 293.944 186.934 286.041 181.279C283.139 179.216 280.266 177.568 276.494 177.079C265.692 175.7 255.312 171.961 246.068 166.122C245.653 165.886 245.224 165.721 244.6 165.417Z" fill="#F0F0F0"/>
<path d="M241.788 264.748C241.251 261.371 240.412 257.937 240.589 254.574C240.92 248.262 241.86 241.978 242.597 235.689C243.294 229.739 244.562 223.806 244.655 217.85C244.783 209.76 244.307 201.641 243.593 193.569C242.705 183.548 239.718 174.103 234.094 165.727C231.773 162.276 228.897 159.211 226.273 155.969L225.809 156.402C225.896 156.667 226.01 156.922 226.148 157.163C229.825 162.288 231.662 168.223 233.502 174.17C235.629 181.09 234.863 187.996 232.878 194.727C231.645 198.915 229.738 202.911 228.003 206.937C223 218.552 218.852 230.381 218.136 243.21C217.596 252.791 217.387 262.367 217.845 271.954C217.909 273.324 218.478 273.97 219.7 274.606C225.307 277.483 230.966 280.3 236.343 283.583C240.514 286.13 244.286 289.339 248.242 292.233C249.287 292.993 250.387 293.68 251.46 294.399C251.655 293.86 245.7 285.649 244.722 281.39C243.465 275.903 242.676 270.309 241.788 264.748Z" fill="#F0F0F0"/>
<path d="M322.605 255.559C321.505 249.664 319.973 243.879 318.542 238.067C318.391 237.46 317.715 236.694 317.143 236.541C313.614 235.595 310.004 234.949 306.501 233.921C303.065 232.913 299.585 231.858 296.37 230.308C289.695 227.092 283.641 222.887 277.817 218.224C269.825 211.844 262.215 205.142 256.051 196.866C254.908 195.331 253.73 193.822 252.296 191.939C252.273 192.326 252.273 192.715 252.296 193.103C253.123 197.874 254.327 202.616 254.708 207.423C255.314 215.038 255.366 222.698 255.671 230.34C256.002 238.636 256.754 246.888 259.653 254.731C261.559 259.894 262.735 265.361 265.747 270.088C270.628 277.751 274.816 285.879 281.456 292.262C285.168 295.828 288.421 299.96 292.411 303.143C300.204 309.35 308.533 314.787 317.799 318.574C319.607 319.314 321.348 320.213 323.04 321C323.435 319.161 323.87 317.578 324.102 315.966C324.79 311.251 325.577 306.509 325.997 301.752C326.665 294.187 327.158 286.56 326.302 279.009C325.44 271.158 324.062 263.339 322.605 255.559Z" fill="#F0F0F0"/>
<path d="M84.5355 171.686C84.5355 171.686 63.2023 188.252 57.8711 192.714C52.54 197.176 45.0062 204.181 46.5763 211.192C47.9199 217.193 51.9103 220.113 58.498 220.113C63.8321 220.113 79.2044 218.201 90.1829 211.511C101.161 204.821 104.928 202.908 104.928 202.908C104.928 202.908 93.6335 199.722 89.2572 190.165C85.1914 181.35 84.5355 171.686 84.5355 171.686Z" fill="#F0F0F0"/>
</g>
<defs>
<clipPath id="clip0_185_27">
<rect width="350" height="400" fill="white"/>
</clipPath>
</defs>
</svg>
