<svg width="41" height="41" viewBox="0 0 41 41" fill="none" xmlns="http://www.w3.org/2000/svg">
<rect width="41" height="41" rx="20.5" fill="#2787F5"/>
<path fill-rule="evenodd" clip-rule="evenodd" d="M32.463 14.5965C32.6363 14.0545 32.4631 13.6562 31.6384 13.6562H28.9116C28.2183 13.6562 27.8986 14.0003 27.7253 14.3797C27.7253 14.3797 26.3386 17.5503 24.3742 19.6099C23.7386 20.2061 23.4497 20.3957 23.103 20.3957C22.9297 20.3957 22.6788 20.2061 22.6788 19.6641V14.5965C22.6788 13.9461 22.4776 13.6562 21.8998 13.6562H17.6148C17.1815 13.6562 16.9209 13.9581 16.9209 14.2442C16.9209 14.8608 17.9031 15.003 18.0043 16.7374V20.5042C18.0043 21.3301 17.8453 21.4798 17.4987 21.4798C16.5743 21.4798 14.3256 18.295 12.992 14.6507C12.7306 13.9424 12.4685 13.6562 11.7716 13.6562H9.04478C8.26569 13.6562 8.10986 14.0003 8.10986 14.3797C8.10986 15.0572 9.03432 18.4175 12.4143 22.8618C14.6676 25.8969 17.8423 27.5422 20.7311 27.5422C22.4645 27.5422 22.6789 27.1768 22.6789 26.5473V24.2534C22.6789 23.5226 22.8431 23.3767 23.392 23.3767C23.7964 23.3767 24.4897 23.5664 26.1075 25.0298C27.9564 26.7641 28.2612 27.5422 29.3012 27.5422H32.028C32.8071 27.5422 33.1966 27.1768 32.9719 26.4556C32.726 25.7369 31.8432 24.6941 30.6719 23.458C30.0364 22.7534 29.083 21.9947 28.7941 21.6152C28.3897 21.1275 28.5053 20.9106 28.7941 20.4771C28.7941 20.4771 32.1164 16.087 32.463 14.5965Z" fill="white"/>
</svg>
