<?xml version="1.0" encoding="utf-8"?>
<!-- Generator: Adobe Illustrator 25.2.1, SVG Export Plug-In . SVG Version: 6.00 Build 0)  -->
<svg version="1.1" id="Слой_1" xmlns="http://www.w3.org/2000/svg" xmlns:xlink="http://www.w3.org/1999/xlink" x="0px" y="0px"
	 viewBox="0 0 298 299" style="enable-background:new 0 0 298 299;" xml:space="preserve">
<style type="text/css">
	.st0{fill:none;stroke:#0A3F76;stroke-width:2;stroke-linecap:round;}
</style>
<path class="st0" d="M297.9,1.6c-9.5-0.1-19-0.6-28.6-0.6c-6.2,0-10.9,2.9-16.4,5c-4.2,1.6-6.3,5.5-9.4,8.2c-5.7,5-9.9,11-16.4,15.4
	c-5.6,3.9-10.3,8.6-16.7,11.7c-4.3,2-8.5,3.6-12.6,5.9c-4.7,2.7-9.2,5.6-13.8,8.4c-3.6,2.1-6.9,3.5-10.6,5.3
	c-3.4,1.6-4.9,3.9-9.1,4.7c-6.1,1.2-13.9-0.4-19.5,1.4c-10.4,3.4-22,4.5-33,6.7c-6.8,1.3-16.5,3.7-21.2,8
	c-5.8,5.3-11.8,10.9-19.2,14.7c-5.3,2.7-10.9,5.1-16.4,7.6c-4.2,1.9-8,4.4-12.6,5.5c-9.5,2.3-18.7,5.2-27.4,9.2
	c-4.7,2.2-11,6.3-12.3,10.7c-1.4,4.6-1.4,9.7-1.4,14.4l0,0.1c0,3.5-1.1,8.3,1.6,11.2c3.5,3.8,4.9,10.5,10.4,13
	c12.2,5.5,28,2.8,41.5,4.8c4.9,0.7,9,0.8,13.7,2.5c4.1,1.5,6,3.8,9,6.4c4.6,4.1,5.2,9.6,8.2,14.4c3.9,6.1,8,12.4,11.4,18.7
	c1.3,2.3,3.5,3.8,5.2,5.9c2.4,3,4.5,6.4,7.6,9c5.3,4.5,9.3,9.7,14.7,14.2c3.7,3.1,7,5.8,10,9.4c2.3,2.8,5.1,4.9,7.9,7.4
	c3.8,3.3,7.8,4.8,12.1,7.4c14.4,8.5,34.4,5.8,49.7,12.1c3.6,1.5,7.7,2,11.5,3.1c4.4,1.3,8.8,2.9,13.2,3.9c8.9,2,18.1,2.5,27.2,3.4
	c4.6,0.5,9.9,1.5,14.3,2.8c4.7,1.4,8.1,3.9,13.4,4.1c4.3,0.1,8.5,0.6,12.9,0.6c4.6,0,7.3-2.1,11.3-3.2 M300.2,15.5
	c-14.7,0-29.2-1.7-40.3,7.8c-2.7,2.3-6,4-8.5,6.7c-1.7,1.9-2.9,3.7-4.9,5.4c-4.4,3.9-8.5,9-13.5,12.3c-2.8,1.8-4.9,3.9-7.8,5.7
	c-2.9,1.7-5.8,2.7-8.2,4.8c-2,1.8-4.1,3.7-6.3,5.3c-4.2,3-8.1,6.7-12.4,9.4c-9.4,6.1-21.8,8.2-32.6,12.1c-7.1,2.6-16.1,6.8-23.9,7.4
	c-5.6,0.5-11.7,0.8-16.8,2.9c-6.5,2.7-14,4.2-20.7,6.9c-2.6,1-6.3,1-8.5,2.5c-2.6,1.9-5.9,2.7-8.9,4.1c-5.3,2.5-10,5.5-14.8,8.6
	c-4.1,2.6-5,12.1-5,15.7c0,9.5,11.8,14.2,20.1,18.7c12.2,6.6,24.6,14.2,30.4,25.3c2.9,5.5,8.7,8.8,12.3,13.7c2.4,3.4,3.9,7.3,6,10.7
	c4.1,6.5,5.9,13.9,10.4,20.2c2.8,4,6.4,7.7,10,11.3c2.6,2.6,6.7,4.1,9.7,6.4c2.5,2,5.8,3.9,7.9,6.2c1.8,2,3.1,3.8,5.9,5
	c4.9,2.1,9.7,3.8,14.8,5.5c4.6,1.6,9.6,2.6,14,4.6c1.7,0.8,3.5,2,5,2.9c2.4,1.3,5.5,1.8,7.6,3.3c3.7,2.6,11.9,2.1,16.7,2.5
	c6.4,0.5,12.9,0.8,19.3,0.8c4.4,0,8,3.6,12.4,4.3c4.1,0.7,8,0.9,11.8,2.2c3.1,1.1,18.4,1.9,19.4-1.4 M306.4,40.1
	c-7.5,0-18.6-1.9-24.2,2.8c-1.7,1.5-4,1.6-6.1,2.6c-2.7,1.2-4.5,3.1-6.3,5c-2.2,2.4-5.6,3.6-8.5,5.3c-1.9,1.1-3.1,2.7-4.9,3.8
	c-4.1,2.4-6.8,5.3-9.8,8.7l-0.1,0.2c-4,4.4-10.5,8.3-15.6,12c-2.7,2-8.1,5.7-11.6,6.3c-5.5,1-12.6,4.4-16.2,8.2
	c-3,3.2-9.2,2.9-13.8,4.2c-4.7,1.3-9.2,3.3-14.3,3.4c-4.7,0.1-9.2,1.8-14,1.9c-5.4,0.1-11.3,2.1-16.5,3.3c-4.7,1.1-8.1,3.6-12.3,5.3
	c-2.1,0.9-4.3,2.1-5.4,3.8c-1.2,1.8-4.7,3.7-4.7,5.6v5.5c0,4-0.9,7.9-0.8,12c0.1,3.5,4.3,7.4,7.2,9.8c3.4,2.9,7.2,5.8,10.8,8.4
	c2.2,1.6,3.3,3.1,6.1,4c3.2,0.9,5.3,2.2,7.8,4.1c6.2,4.6,10.8,10.2,16.6,15c6.4,5.4,12.9,10.9,17.3,17.5c2.1,3.2,5.4,5,7.9,7.8
	c1.4,1.6,1.4,3.7,2.9,5.3c1.6,1.6,4.4,3.2,6.4,4.6c4.8,3.2,11.4,5.7,17.2,7.5c4.8,1.5,9.2,3.7,13.5,6c7.2,3.7,16.4,6.7,24.7,8
	c11.9,1.9,23.8,0.3,35.6,0.3 M298.7,66.6c-4.7,0-5,0.6-8.6,2.7c-3.1,1.8-6.4,2.4-8.8,4.9c-1.4,1.5-3.2,2.6-4.7,4
	c-2.3,2.1-5.9,3.5-8.5,5.5c-3.4,2.6-7.3,4.7-11.2,6.7c-3.1,1.6-4.6,4.9-8.7,5.4c-4.8,0.5-10,3.9-14.5,5.3c-3.5,1.1-5.8,3.4-9.3,4.5
	c-2.7,0.9-6,0.9-8.5,2.1c-2.6,1.2-3.3,2.8-6.4,3.2c-9.2,1.4-17.9,4.6-26.8,7.2c-4.8,1.4-9.6,2.8-14.4,4.6c-4.9,1.9-7,5.8-7,9.9
	c0,5.1-1.1,10.9,0.2,15.9c1.3,4.9,9.2,9.8,14.4,11.5c4,1.3,7.7,3.2,11.8,4.6c2.6,0.8,4.9,2.4,7.6,2.9c2.2,0.4,4.2,0.4,6.4,1.1
	c4.5,1.4,8.5,2.4,12.8,4.1c3.3,1.3,6.1,1.2,8.5,3.9c1.9,2.2,5.4,3.4,6.5,6c0.8,2.1,0.9,4,2.1,5.9c0.9,1.4,0.3,3.3,0.5,4.8
	c0.1,1.1,1.9,2,2.6,2.9c1.7,2,3.3,4.3,5.9,5.7c2.5,1.4,3.7,4,7,4.7c3.4,0.7,6.1,2.6,9.4,3.4c7.7,1.9,16.6,3,24.8,3
	c3.6,0,4,1.9,7.8,1.9c2.7,0,5.2,0.6,7.9,0.6 M301,91.2c-3.2,0-6.4,0.8-8.9,2.5c-2.3,1.6-4.8,1.8-7.2,2.9c-2.6,1.3-6.8,3.9-8.7,5.7
	c-1.7,1.6-5.1,2.8-7.2,4.2c-5.1,3.4-10.9,3.7-16,6.7c-2.5,1.4-5.1,1.5-7.5,2.8c-3.4,1.7-7.4,2.5-10.5,4.3c-1.7,1-3.1,2.7-4.7,3.5
	c-2.7,1.3-6.3,0.8-9.1,1.7c-3.4,1-6.9,2.3-10.3,3.5c-3.8,1.3-9.7-0.6-12.9,1.9c-2.9,2.3-6,3.7-4.8,7.6c1.6,5.5,8,8.5,11.8,12.6
	c3.2,3.5,6.4,6.5,10.8,8.9c1.5,0.8,3.8,2.9,5.1,4.1l0,0c2.2,2,5.4,2.3,8.1,3.7c3.9,2,6.6,5.8,10.2,8.2c2.6,1.7,3.6,2.1,5.4,4.6
	c1,1.5,4.1,3.1,5.7,4.2c7.9,5,17.4,8.1,25.7,12.7c3.4,1.9,6,5.3,10.5,5.9c3.1,0.5,15.2,1.3,17.5-0.6 M297.9,111.3
	c-8.8,0.2-16.4,5.2-23.8,8.5c-2.4,1-5.8,2.6-8.2,3.4c-3,1-6.6,2.9-9.6,3.3c-3.9,0.6-7.1,3.7-10.6,4.9c-2.3,0.8-6.4,2.2-8,3.8
	c-2.3,2.3-4.5,0.5-5.4,3.9c-0.7,2.7-1.2,5.3-1.2,8.1c0,4.4,6.8,10,11.2,12.1c2.3,1,5,0.9,7.4,1.8c1.4,0.6,2.5,1.5,4.1,1.9
	c2.6,0.7,5.4,1.8,8,2.7c1.7,0.6,5.2,3.8,6.6,5c2.7,2.2,7.5,4,11,4.9c7.8,2.1,16.5,1.4,24.7,1.4 M297.9,125.2c-6.6,0-11,1.7-17.1,3.8
	c-4.1,1.4-8.9,2-11.4,5c-1.8,2.2-5.9,4.2-8.3,6.3c-2.9,2.6-2,6-2,9.4c0,3.8,7,5.8,10.8,5.8c4.3,0,6.3,3.5,10.2,3.8
	c3.8,0.3,6,4,10.1,4.4c4.3,0.4,8.1,1.3,12.5,1.3 M295.9,134c-4.9,0.1-10.1,0.5-14.5,2.3c-1.6,0.7-4.6,1.4-5.6,2.6
	c-1.5,2.2-0.5,4.2,2.7,4.9c1.1,0.3,1.9,1.1,3,1.5c0.8,0.3,1.8,0.3,2.6,0.5c1,0.3,1.6,1.3,2.5,1.6c1.1,0.4,1.4,1.4,2.3,1.8
	c0.6,0.3,1.5,0.5,2.2,0.8c2.6,0.9,4.6,1.2,7.4,1.2"/>
</svg>
