<?xml version="1.0" encoding="utf-8"?>
<!-- Generator: Adobe Illustrator 25.2.1, SVG Export Plug-In . SVG Version: 6.00 Build 0)  -->
<svg version="1.1" id="Слой_1" xmlns="http://www.w3.org/2000/svg" xmlns:xlink="http://www.w3.org/1999/xlink" x="0px" y="0px"
	 viewBox="0 0 1417.32 1417.32" style="enable-background:new 0 0 1417.32 1417.32;" xml:space="preserve">
<style type="text/css">
	.st0{fill:#154073;stroke:#154073;stroke-width:0.25;stroke-miterlimit:10;}
</style>
<g>
	<path class="st0" d="M3.13,1366.73c16.47,3.69,32.94,7.64,49.47,11.05c75.08,15.5,150.42,20.5,226.14,8.46
		c38.98-6.2,75.55-21.86,109.24-47.52c47.75-36.38,93.75-75.94,136.41-121.84c35.37-38.06,76.27-64.3,120.75-79.9
		c95.58-33.5,192.46-51.96,290.95-24.52c45.1,12.56,89.05,31.73,133.69,47.11c43.32,14.92,87.09,25.25,132.41,23.84
		c61.21-1.92,103.4-40.77,132.32-106.79c15.11-34.49,25.1-71.42,28.33-110.88c2.63-32.03,4.77-64.14,6.47-96.27
		c0.56-10.61-0.38-21.49-1.58-32.07c-4.5-39.76-19.89-69.94-48.2-88.99c-32.94-22.16-65.8-44.53-98.36-67.57
		c-30.94-21.89-59.12-48.72-82.17-83.23c-13.43-20.1-25.55-41.65-37.97-62.82c-20.42-34.8-45.21-63.59-73.76-86.95
		c-40.21-32.88-80.08-66.58-121.36-97.12c-34.25-25.34-70.35-46.57-105.59-69.74c-9.88-6.5-19.77-13.02-29.31-20.25
		c-37.27-28.22-77.49-46.57-119.12-61.18c-27.13-9.52-53.87-21.29-80.12-34.25c-11.2-5.53-20.98-16.18-30.95-25.31
		c-19.71-18.05-39.1-36.66-58.64-55.01c-1.93-1.82-4.32-3.02-5.93-5.19c-23.66-31.77-54.87-36.93-86.31-37.3
		c-76.02-0.91-152,2.6-227.36,16.21c-52.42,9.47-101.78,32.72-149.7,60.97c-3.18,1.88-6.42,3.6-10.91,6.12
		c0-8.93-0.84-16.33,0.33-23.18c0.65-3.8,4.16-8,7.19-9.77C68.34,58.52,129.36,34.8,194.22,27c63.77-7.67,127.61-11.38,191.59-10.8
		c17.29,0.16,34.63,3.97,51.81,7.23C454.03,26.55,468.3,36,480.73,50.3c5.09,5.86,11.17,10.3,16.72,15.54
		c18.3,17.28,37.01,33.93,54.71,52.16c18.36,18.9,38.79,31.93,61.16,40.46c31.64,12.06,63.7,22.56,94.87,36.32
		c21.16,9.34,41.46,22.27,61.53,35.15c37.02,23.76,73.41,49.11,110.39,72.99c62.36,40.27,120.02,90.22,177.63,140.23
		c30.22,26.23,54,61.38,74.15,99.56c31.98,60.62,76.24,101.15,125.76,134.27c21.81,14.59,43.33,29.95,65.47,43.69
		c49.39,30.65,68.58,83.56,66.88,150.24c-0.98,38.62-4.13,77.39-8.96,115.54c-6.92,54.61-23.53,104.63-51.94,147.13
		c-33.94,50.76-77.06,75.93-129.67,76.58c-47.41,0.59-93.2-10.44-138.51-26.34c-32.71-11.48-65.28-23.63-97.86-35.75
		c-57.3-21.31-115.55-27.12-174.76-18.21c-51.91,7.81-103.72,15.89-153.34,38.91c-38.23,17.74-73.29,42.05-104.37,75.69
		c-43.22,46.78-90.42,86.3-139.41,122.29c-45.82,33.66-96.16,46.41-148.35,50.66c-76.04,6.19-151.17-2.69-225.82-20.59
		C0.09,1392.77-0.83,1390.26,3.13,1366.73z"/>
	<path class="st0" d="M1.82,1072.15c22.72,2.7,43.91,5.25,65.1,7.73c77.86,9.14,155.36,3.43,232.69-9.25
		c51.2-8.39,102.53-15.71,153.56-25.58c55.36-10.71,107.66-33.92,157-68.15c50.75-35.2,102.8-66.38,158.97-85.62
		c39.31-13.46,76.65-9.02,113.14,12.83c15.77,9.44,31.54,18.86,47.23,28.49c23.2,14.24,47.46,18.45,72.83,13.46
		c27.17-5.34,53.61-14.02,77.98-30.6c23.19-15.79,28.36-35.25,17.4-65.97c-19.6-54.91-47.86-102.3-77.72-148.79
		c-40.65-63.3-92.79-103.83-151.71-131.31c-32.93-15.36-66.43-30.37-100.67-39.2c-75.44-19.46-141.26-62.78-201.88-121.49
		c-38.27-37.07-76.47-74.3-115.67-109.73c-18.27-16.51-38.44-29.84-58.44-42.88c-18.99-12.39-39.96-17.1-61.17-16.71
		c-89.16,1.67-178.31,3.99-267.46,6.07c-17.71,0.41-35.43,0.45-53.13,1.37c-7.47,0.39-8.44-4.34-8.13-11.94
		c0.29-7.16-1.27-14.35,8.01-14.56c105.37-2.4,210.72-5.44,316.09-7.79c39.3-0.88,75.56,14,107.97,41.58
		c32.44,27.61,63.52,57.81,95.31,86.68c35.96,32.65,71.58,65.96,108.2,97.37c36.88,31.63,78.66,48.23,121.55,61.71
		c35.22,11.07,70.18,24.07,104.55,38.88c73.56,31.71,136.46,83.17,184.6,163.09c24.83,41.23,48.3,83.14,66.1,129.91
		c4.27,11.22,7.63,23.61,8.99,35.9c2.72,24.55-3.75,45.4-19.81,60.41c-24.9,23.27-54.05,32.69-83.41,41.08
		c-38.76,11.07-75.67,4.67-110.86-19.36c-13.75-9.39-28.07-17.49-42.4-25.37c-28.18-15.5-56.99-18.72-87.15-9.05
		c-49.92,16.01-97.36,40.42-141.58,73.09c-79.58,58.79-166.24,85.01-256.2,97.35c-67.44,9.25-134.97,18.08-202.62,24.12
		c-56.74,5.07-113.36-2.61-169.8-10.65c-5.6-0.8-7.98-3.86-7.54-11.06C2.07,1083.35,1.82,1078.41,1.82,1072.15z"/>
	<path class="st0" d="M2.61,816.09c5.02-0.33,9.75-1.06,14.47-0.89c57.62,2.04,115.23,4.22,172.85,6.36
		c106.23,3.94,212.46,8.14,318.71,11.67c49.19,1.64,98.44,3.82,147.6,2.36c52.81-1.57,104.42-15.05,154.11-38.26
		c13.92-6.5,26.7-17.15,39.72-26.53c3.81-2.74,7.06-7.21,9.89-11.61c11.12-17.33,8.98-35.74-7.12-44.03
		c-28.88-14.88-58.01-29.75-87.98-40.19c-39.33-13.71-80.61-19.11-119.19-35.32c-64.37-27.05-127.75-58.27-190.63-90.63
		c-67.65-34.82-134.62-71.93-201.2-109.99c-54.18-30.97-111.07-43.71-169.6-47.62c-24.27-1.62-48.62-1.45-72.93-1.57
		c-6.55-0.03-10.1-1.55-9.63-11.28c0.4-8.37-0.63-15.29,9.35-15.39c54.75-0.57,109.19,2.42,163.22,15.22
		c35.84,8.49,68.91,26.45,102.05,44.46c109.67,59.61,218.24,122.61,330.42,174.45c39.38,18.2,79.91,30.57,121.09,39.79
		c45.17,10.12,88.81,26.59,130.43,51.42c34.64,20.67,40.72,62.48,11.9,94.6c-13.73,15.29-30.45,27.9-47.45,36.37
		c-56.44,28.1-115.6,42.48-176.03,43.18c-62.69,0.73-125.43-2.36-188.13-4.67c-135.04-4.97-270.07-10.55-405.11-15.76
		c-13.2-0.51-26.42-0.37-39.63-0.29c-12.26,0.07-12.29,0.21-11.92-15.86C1.91,823.08,2.29,820.11,2.61,816.09z"/>
	<path class="st0" d="M3.12,507.82c-3.95-24.09-2.91-25.78,15.08-27.2c28.24-2.23,54.86,7.06,80.85,19.37
		c58.54,27.72,116.7,56.73,175.36,84.02c23.16,10.77,36.59,29.5,38.66,60.97c1.59,24.32,12.52,38.09,30.7,41.12
		c23.47,3.92,47.13,6.02,70.71,8.8c27.48,3.23,54.99,6.17,82.45,9.65c5.31,0.67,10.67,2.56,15.68,4.99
		c14,6.8,16.65,23.67,4.84,35.65c-7.6,7.72-16.64,13.82-25.73,18.31c-30.64,15.13-63.06,18.46-95.45,21.16
		c-82.89,6.91-165.63,1.39-248.34-5.46c-44.93-3.72-89.82-8.36-134.76-11.71c-9.68-0.72-12.2-5.38-11.49-16.7
		c0.66-10.63,0.14-21.39,0.14-33.03c3.58-0.61,6.51-0.85,9.35-1.64c18.08-5.06,37.05-7.33,53.98-16.07
		c24.1-12.44,46.75-29.53,69.89-44.96c3.65-2.43,6.91-6.17,9.83-9.96c8.28-10.75,8.18-23.91-1.56-32.55
		c-6.96-6.18-15.3-11.91-23.51-13.35c-33.55-5.89-67.24-10.98-100.99-14.51C0.03,582.77-0.07,584.42,2.78,559
		c3.55-0.4,7.39-1.61,11.09-1.12c36.97,4.89,74.01,9.22,110.82,15.7c10.27,1.81,20.64,8.59,29.55,15.92
		c21.79,17.92,23.59,53.19,4.57,75.75c-4.58,5.43-9.66,10.69-15.23,14.17c-29.33,18.38-58.87,36.19-88.36,54.13
		c-3.38,2.06-6.9,3.73-10.35,5.59c0.06,0.97,0.12,1.94,0.18,2.9c4.53,1.02,9.04,2.57,13.6,2.97c94.03,8.39,188.06,18.23,282.4,15.99
		c37.12-0.88,74.22-6.33,111.19-11.37c13.01-1.77,25.61-8.53,38.39-13.02c-0.11-1.85-0.22-3.71-0.33-5.56
		c-4.68-1.26-9.32-3.22-14.05-3.66c-34.42-3.21-68.89-5.65-103.28-9.36c-13.99-1.51-28.05-4.37-41.65-8.79
		c-21.13-6.86-34.03-24.71-37.7-52.66c-0.55-4.16-1.34-8.28-1.73-12.46c-1.53-16.5-8.32-27.24-20.66-32.92
		c-34.16-15.74-68.31-31.55-102.3-47.89c-24.44-11.75-48.48-24.88-72.94-36.54c-28.56-13.62-57.6-24.61-88.77-18.39
		C5.87,508.66,4.39,508.02,3.12,507.82z"/>
</g>
</svg>
