<svg width="41" height="41" viewBox="0 0 41 41" fill="none" xmlns="http://www.w3.org/2000/svg">
<path d="M0 20.5C0 9.17816 9.17816 0 20.5 0C31.8218 0 41 9.17816 41 20.5C41 31.8218 31.8218 41 20.5 41C9.17816 41 0 31.8218 0 20.5Z" fill="#00D95F"/>
<path d="M11 30.5182L12.4708 25.0493C11.2846 22.9189 10.9078 20.4329 11.4094 18.0475C11.911 15.6621 13.2575 13.5372 15.2017 12.0629C17.1459 10.5886 19.5574 9.86368 21.9938 10.0212C24.4301 10.1787 26.7279 11.208 28.4654 12.9204C30.2029 14.6327 31.2636 16.9131 31.4529 19.3432C31.6422 21.7733 30.9473 24.19 29.4958 26.1499C28.0443 28.1098 25.9336 29.4814 23.5509 30.013C21.1682 30.5446 18.6734 30.2006 16.5243 29.0441L11 30.5182ZM16.7907 26.9976L17.1323 27.1999C18.689 28.121 20.5071 28.5022 22.3034 28.284C24.0997 28.0659 25.7733 27.2606 27.0633 25.9937C28.3533 24.7268 29.1873 23.0695 29.4353 21.28C29.6834 19.4905 29.3315 17.6693 28.4345 16.1003C27.5376 14.5313 26.146 13.3026 24.4765 12.6057C22.807 11.9087 20.9535 11.7827 19.2048 12.2472C17.4561 12.7117 15.9104 13.7407 14.8087 15.1738C13.7069 16.6069 13.1109 18.3636 13.1136 20.1701C13.1121 21.668 13.5271 23.137 14.3123 24.4134L14.5265 24.7661L13.7042 27.8185L16.7907 26.9976Z" fill="white"/>
<path fill-rule="evenodd" clip-rule="evenodd" d="M25.0827 21.5743C24.8824 21.413 24.6479 21.2995 24.397 21.2424C24.1461 21.1853 23.8855 21.1861 23.635 21.2448C23.2586 21.4009 23.0154 21.9905 22.7722 22.2854C22.7209 22.356 22.6455 22.4056 22.5602 22.4248C22.475 22.4439 22.3856 22.4314 22.3089 22.3894C20.9309 21.8506 19.7759 20.8625 19.0314 19.5856C18.9679 19.5059 18.9379 19.4047 18.9476 19.3034C18.9573 19.202 19.006 19.1084 19.0835 19.0422C19.3548 18.7741 19.5539 18.442 19.6626 18.0767C19.6867 17.6738 19.5943 17.2725 19.3962 16.9205C19.2431 16.4271 18.9518 15.9878 18.5566 15.6545C18.3527 15.563 18.1267 15.5323 17.9058 15.5661C17.6849 15.6 17.4785 15.6969 17.3116 15.8453C17.0217 16.0949 16.7917 16.4063 16.6384 16.7565C16.485 17.1066 16.4123 17.4867 16.4256 17.8686C16.4265 18.0831 16.4537 18.2967 16.5067 18.5045C16.6411 19.004 16.8479 19.4811 17.1205 19.9209C17.3171 20.2578 17.5317 20.5839 17.7633 20.8979C18.5158 21.9292 19.4617 22.8049 20.5486 23.4763C21.094 23.8174 21.6769 24.0948 22.2858 24.303C22.9183 24.5892 23.6167 24.6991 24.3067 24.6209C24.6999 24.5615 25.0724 24.4065 25.3915 24.1696C25.7105 23.9327 25.9664 23.6212 26.1366 23.2624C26.2365 23.0456 26.2669 22.8033 26.2234 22.5686C26.1192 22.0888 25.4764 21.8055 25.0827 21.5743Z" fill="white"/>
</svg>
